# xmcd
#
# Track frame offsets: 
#        150
#        12597
#        22573
#        31236
#        41469
#        51394
#        62091
#        71181
#        81569
#        90989
#        100825
#        112108
#        122938
#        134887
#        146941
#        156843
#        165989
#        177701
#        186817
#        196912
#
# Disc length: 2775 seconds
#
# Revision: 0
# Processed by: cddbd v1.5.2PL0 Copyright (c) Steve Scherf et al.
# Submitted via: ExactAudioCopyFreeDBPlugin 1.0
#
DISCID=240ad514
DTITLE=Winifred Atwell - Let's Have a Party
DYEAR=2005
DGENRE=Blues
TTITLE0=Cross Hands Boogie
TTITLE1=Rhapsody Boogie
TTITLE2=Let's Have a Party 1
TTITLE3=Let's Have a Party 2
TTITLE4=Five Finger Boogie
TTITLE5=Wanderlust Waltz
TTITLE6=Plink, Plank, Plunk
TTITLE7=Coronation Rag
TTITLE8=Golden Tango
TTITLE9=Britannia Rag
TTITLE10=Tamboo
TTITLE11=Gipsy Samba
TTITLE12=March Of the Cards
TTITLE13=Taboo
TTITLE14=Manzanilla
TTITLE15=Lady Of Spain
TTITLE16=Jezebel
TTITLE17=Dixie Boogie
TTITLE18=Flirtation Watlz
TTITLE19=Buda, Buda
EXTD=
EXTT0=
EXTT1=
EXTT2=
EXTT3=
EXTT4=
EXTT5=
EXTT6=
EXTT7=
EXTT8=
EXTT9=
EXTT10=
EXTT11=
EXTT12=
EXTT13=
EXTT14=
EXTT15=
EXTT16=
EXTT17=
EXTT18=
EXTT19=
PLAYORDER=
